<svg width="875" height="93" viewBox="0 0 875 93" fill="none" xmlns="http://www.w3.org/2000/svg">
<path d="M70.592 93H5.44C3.81867 93 2.624 92.6586 1.856 91.976C1.17333 91.208 0.832001 90.0133 0.832001 88.392V5.44797C0.832001 3.82663 1.17333 2.67463 1.856 1.99197C2.624 1.22397 3.81867 0.839966 5.44 0.839966H25.28C26.9013 0.839966 28.0533 1.22397 28.736 1.99197C29.504 2.67463 29.888 3.82663 29.888 5.44797V68.808H47.424V48.072C47.424 46.4506 47.7653 45.2986 48.448 44.616C49.216 43.848 50.4107 43.464 52.032 43.464H70.592C72.2133 43.464 73.3653 43.848 74.048 44.616C74.816 45.2986 75.2 46.4506 75.2 48.072V88.392C75.2 90.0133 74.816 91.208 74.048 91.976C73.3653 92.6586 72.2133 93 70.592 93Z" fill="black"/>
<path d="M153.832 93H94.44C92.8187 93 91.624 92.6586 90.856 91.976C90.1733 91.208 89.832 90.0133 89.832 88.392V5.44797C89.832 3.82663 90.1733 2.67463 90.856 1.99197C91.624 1.22397 92.8187 0.839966 94.44 0.839966H153.832C155.453 0.839966 156.605 1.22397 157.288 1.99197C158.056 2.67463 158.44 3.82663 158.44 5.44797V20.424C158.44 22.0453 158.056 23.24 157.288 24.008C156.605 24.6906 155.453 25.032 153.832 25.032H118.504V34.888H143.464C145.085 34.888 146.237 35.272 146.92 36.04C147.688 36.7226 148.072 37.8746 148.072 39.496V53.192C148.072 54.8133 147.688 56.008 146.92 56.776C146.237 57.4586 145.085 57.8 143.464 57.8H118.504V68.808H153.832C155.453 68.808 156.605 69.192 157.288 69.96C158.056 70.6426 158.44 71.7946 158.44 73.416V88.392C158.44 90.0133 158.056 91.208 157.288 91.976C156.605 92.6586 155.453 93 153.832 93Z" fill="black"/>
<path d="M206.99 27.72L200.974 47.176H221.07L215.054 27.72C214.713 26.952 214.329 26.3973 213.902 26.056C213.561 25.7146 213.134 25.544 212.622 25.544H209.422C208.91 25.544 208.441 25.7146 208.014 26.056C207.673 26.3973 207.331 26.952 206.99 27.72ZM199.694 88.392C199.694 90.0133 199.31 91.208 198.542 91.976C197.859 92.6586 196.707 93 195.086 93H176.27C174.649 93 173.454 92.6586 172.686 91.976C172.003 91.208 171.662 90.0133 171.662 88.392V54.6C171.662 52.04 172.046 49.096 172.814 45.768C173.667 42.44 174.947 38.5573 176.654 34.12L187.79 5.06396C188.302 3.6133 189.07 2.54663 190.094 1.86397C191.203 1.1813 192.611 0.839966 194.318 0.839966H228.75C230.371 0.839966 231.694 1.1813 232.718 1.86397C233.827 2.54663 234.638 3.6133 235.15 5.06396L246.286 34.12C247.993 38.5573 249.23 42.44 249.998 45.768C250.851 49.096 251.278 52.04 251.278 54.6V88.392C251.278 90.0133 250.894 91.208 250.126 91.976C249.443 92.6586 248.291 93 246.67 93H227.342C225.635 93 224.355 92.6586 223.502 91.976C222.734 91.208 222.35 90.0133 222.35 88.392V70.472H199.694V88.392Z" fill="black"/>
<path d="M291.53 93H271.69C270.069 93 268.874 92.6586 268.106 91.976C267.423 91.208 267.082 90.0133 267.082 88.392V5.44797C267.082 3.82663 267.423 2.67463 268.106 1.99197C268.874 1.22397 270.069 0.839966 271.69 0.839966H310.858C322.463 0.839966 330.399 3.14397 334.666 7.75197C338.933 12.36 341.066 18.376 341.066 25.8V42.184C341.066 49.608 338.933 55.624 334.666 60.232C330.399 64.84 322.463 67.144 310.858 67.144H296.138V88.392C296.138 90.0133 295.754 91.208 294.986 91.976C294.303 92.6586 293.151 93 291.53 93ZM295.882 24.776V44.104H307.402C309.877 44.104 311.498 43.464 312.266 42.184C313.034 40.904 313.418 39.4533 313.418 37.832V31.048C313.418 29.4266 313.034 27.976 312.266 26.696C311.498 25.416 309.877 24.776 307.402 24.776H295.882Z" fill="black"/>
<path d="M408.092 93H358.94C357.319 93 356.124 92.6586 355.356 91.976C354.673 91.208 354.332 90.0133 354.332 88.392V5.44797C354.332 3.82663 354.673 2.67463 355.356 1.99197C356.124 1.22397 357.319 0.839966 358.94 0.839966H399.772C408.135 0.839966 414.321 2.4613 418.332 5.70396C422.343 8.8613 424.348 13.768 424.348 20.424V26.568C424.348 30.152 423.708 33.096 422.428 35.4C421.233 37.6186 419.356 39.2826 416.796 40.392C422.257 40.904 426.311 42.7813 428.956 46.024C431.601 49.2666 432.924 54.0026 432.924 60.232V72.008C432.924 79.176 430.876 84.4666 426.78 87.88C422.769 91.2933 416.54 93 408.092 93ZM383.132 22.6V36.424H394.012C395.633 36.424 396.828 35.9973 397.596 35.144C398.449 34.2906 398.876 33.0106 398.876 31.304V27.72C398.876 26.0133 398.449 24.7333 397.596 23.88C396.828 23.0266 395.633 22.6 394.012 22.6H383.132ZM383.132 56.136V71.24H399.772C401.393 71.24 402.588 70.8133 403.356 69.96C404.209 69.1066 404.636 67.8266 404.636 66.12V61.128C404.636 59.4213 404.209 58.184 403.356 57.416C402.588 56.5626 401.393 56.136 399.772 56.136H383.132Z" fill="black"/>
<path d="M476.01 23.88V40.264H485.61C487.829 40.264 489.322 39.7093 490.09 38.6C490.858 37.4053 491.242 35.9546 491.242 34.248V29.896C491.242 28.1893 490.858 26.7813 490.09 25.672C489.322 24.4773 487.829 23.88 485.61 23.88H476.01ZM471.402 93H451.69C450.069 93 448.874 92.6586 448.106 91.976C447.423 91.208 447.082 90.0133 447.082 88.392V5.44797C447.082 3.82663 447.423 2.67463 448.106 1.99197C448.874 1.22397 450.069 0.839966 451.69 0.839966H494.314C503.871 0.839966 510.442 2.8453 514.026 6.85596C517.695 10.7813 519.53 15.9013 519.53 22.216V28.104C519.53 31.688 518.975 34.76 517.866 37.32C516.842 39.7946 515.007 41.5866 512.362 42.696C516.97 43.208 520.682 45.0853 523.498 48.328C526.399 51.5706 527.85 55.88 527.85 61.256V88.392C527.85 90.0133 527.466 91.208 526.698 91.976C526.015 92.6586 524.863 93 523.242 93H503.402C501.781 93 500.586 92.6586 499.818 91.976C499.135 91.208 498.794 90.0133 498.794 88.392V68.808C498.794 66.9306 498.41 65.5653 497.642 64.712C496.959 63.7733 495.722 63.304 493.93 63.304H476.01V88.392C476.01 90.0133 475.626 91.208 474.858 91.976C474.175 92.6586 473.023 93 471.402 93Z" fill="black"/>
<path d="M544.767 93C543.146 93 541.951 92.6586 541.183 91.976C540.5 91.208 540.159 90.0133 540.159 88.392V73.16C540.159 71.5386 540.5 70.3866 541.183 69.704C541.951 68.936 543.146 68.552 544.767 68.552H557.439V25.544H544.767C543.146 25.544 541.951 25.2026 541.183 24.52C540.5 23.752 540.159 22.5573 540.159 20.936V5.44797C540.159 3.82663 540.5 2.67463 541.183 1.99197C541.951 1.22397 543.146 0.839966 544.767 0.839966H599.295C600.916 0.839966 602.068 1.22397 602.751 1.99197C603.519 2.67463 603.903 3.82663 603.903 5.44797V20.936C603.903 22.5573 603.519 23.752 602.751 24.52C602.068 25.2026 600.916 25.544 599.295 25.544H586.879V68.552H599.295C600.916 68.552 602.068 68.936 602.751 69.704C603.519 70.3866 603.903 71.5386 603.903 73.16V88.392C603.903 90.0133 603.519 91.208 602.751 91.976C602.068 92.6586 600.916 93 599.295 93H544.767Z" fill="black"/>
<path d="M667.451 93H624.315C622.694 93 621.499 92.6586 620.731 91.976C620.048 91.208 619.707 90.0133 619.707 88.392V5.44797C619.707 3.82663 620.048 2.67463 620.731 1.99197C621.499 1.22397 622.694 0.839966 624.315 0.839966H667.451C678.118 0.839966 686.011 2.9733 691.131 7.23997C696.336 11.5066 698.939 18.0773 698.939 26.952V66.888C698.939 75.7626 696.336 82.3333 691.131 86.6C686.011 90.8666 678.118 93 667.451 93ZM648.763 25.288V68.808H663.995C666.043 68.808 667.536 68.296 668.475 67.272C669.499 66.248 670.011 64.6693 670.011 62.536V31.432C670.011 29.2986 669.499 27.7626 668.475 26.824C667.536 25.8 666.043 25.288 663.995 25.288H648.763Z" fill="black"/>
<path d="M785.607 93H745.287C734.62 93 726.684 90.8666 721.479 86.6C716.359 82.3333 713.799 75.7626 713.799 66.888V26.952C713.799 18.0773 716.359 11.5066 721.479 7.23997C726.684 2.9733 734.62 0.839966 745.287 0.839966H777.287C778.908 0.839966 780.06 1.22397 780.743 1.99197C781.511 2.67463 781.895 3.82663 781.895 5.44797V20.936C781.895 22.5573 781.511 23.752 780.743 24.52C780.06 25.2026 778.908 25.544 777.287 25.544H750.663C748.018 25.544 746.055 26.0986 744.775 27.208C743.495 28.232 742.855 29.8106 742.855 31.944V62.536C742.855 64.6693 743.324 66.248 744.263 67.272C745.287 68.296 746.78 68.808 748.743 68.808H761.159V48.84C761.159 47.2186 761.5 46.0666 762.183 45.384C762.951 44.616 764.146 44.232 765.767 44.232H785.607C787.228 44.232 788.38 44.616 789.063 45.384C789.831 46.0666 790.215 47.2186 790.215 48.84V88.392C790.215 90.0133 789.831 91.208 789.063 91.976C788.38 92.6586 787.228 93 785.607 93Z" fill="black"/>
<path d="M869.832 93H810.44C808.819 93 807.624 92.6586 806.856 91.976C806.173 91.208 805.832 90.0133 805.832 88.392V5.44797C805.832 3.82663 806.173 2.67463 806.856 1.99197C807.624 1.22397 808.819 0.839966 810.44 0.839966H869.832C871.453 0.839966 872.605 1.22397 873.288 1.99197C874.056 2.67463 874.44 3.82663 874.44 5.44797V20.424C874.44 22.0453 874.056 23.24 873.288 24.008C872.605 24.6906 871.453 25.032 869.832 25.032H834.504V34.888H859.464C861.085 34.888 862.237 35.272 862.92 36.04C863.688 36.7226 864.072 37.8746 864.072 39.496V53.192C864.072 54.8133 863.688 56.008 862.92 56.776C862.237 57.4586 861.085 57.8 859.464 57.8H834.504V68.808H869.832C871.453 68.808 872.605 69.192 873.288 69.96C874.056 70.6426 874.44 71.7946 874.44 73.416V88.392C874.44 90.0133 874.056 91.208 873.288 91.976C872.605 92.6586 871.453 93 869.832 93Z" fill="black"/>
</svg>
